<svg xmlns="http://www.w3.org/2000/svg" width="1440" height="980" viewBox="0 0 1440 980"><rect width="1440" height="980" fill="#f6f3ee"/><g aria-label="轮廓与留白" fill="#181719"><path transform="translate(64 84) scale(0.029 -0.029)" d="M309 -59Q309 -62 294.5 -70.0Q280 -78 256 -78H246V386H309ZM344 557Q342 547 334.5 540.0Q327 533 309 531V376Q309 376 296.0 376.0Q283 376 266 376H250V568ZM46 152Q82 158 147.5 172.0Q213 186 296.0 204.5Q379 223 467 244L470 228Q408 202 320.5 167.5Q233 133 113 90Q108 71 91 66ZM368 446Q368 446 380.5 435.5Q393 425 410.5 410.5Q428 396 442 383Q438 367 417 367H104L96 396H328ZM386 705Q386 705 399.5 694.5Q413 684 432.0 669.0Q451 654 466 639Q463 623 441 623H46L38 652H343ZM306 804Q302 796 291.5 790.0Q281 784 259 788L271 804Q263 774 251.0 731.0Q239 688 223.5 639.5Q208 591 192.0 541.5Q176 492 160.0 446.5Q144 401 131 367H141L108 333L38 391Q49 398 66.0 404.5Q83 411 97 414L70 379Q82 410 98.0 455.0Q114 500 131.0 551.5Q148 603 164.0 655.5Q180 708 192.5 754.5Q205 801 213 835ZM867 375Q861 369 853.0 368.0Q845 367 830 374Q767 322 695.5 280.5Q624 239 562 215L554 230Q590 254 631.5 287.5Q673 321 715.0 361.0Q757 401 792 443ZM613 484Q612 475 604.5 468.0Q597 461 581 459V38Q581 24 589.5 18.0Q598 12 631 12H741Q780 12 807.0 12.5Q834 13 846 14Q862 15 868 27Q874 39 882.0 77.5Q890 116 898 161H911L914 23Q931 17 937.0 11.0Q943 5 943 -5Q943 -20 927.0 -29.0Q911 -38 868.0 -42.0Q825 -46 740 -46H622Q581 -46 558.5 -40.0Q536 -34 528.0 -18.0Q520 -2 520 25V495ZM700 807Q723 745 766.0 685.0Q809 625 862.0 574.5Q915 524 966 489L962 477Q940 472 924.5 459.5Q909 447 903 428Q854 472 811.5 532.0Q769 592 735.5 660.0Q702 728 680 795ZM703 794Q676 733 635.5 663.5Q595 594 542.5 530.0Q490 466 428 419L415 430Q453 469 489.0 520.5Q525 572 555.5 628.0Q586 684 609.5 740.5Q633 797 646 845L741 812Q739 805 730.5 799.5Q722 794 703 794Z"/><path transform="translate(93 84) scale(0.029 -0.029)" d="M463 849Q512 843 542.0 828.5Q572 814 586.5 797.0Q601 780 602.5 764.5Q604 749 596.5 737.5Q589 726 574.5 723.0Q560 720 543 729Q532 758 505.5 789.5Q479 821 453 841ZM133 727V751L210 717H198V462Q198 398 194.5 327.5Q191 257 176.5 184.5Q162 112 131.5 44.0Q101 -24 48 -83L33 -73Q79 6 100.0 95.0Q121 184 127.0 277.0Q133 370 133 461V717ZM871 779Q871 779 879.5 771.5Q888 764 902.0 752.5Q916 741 931.5 728.5Q947 716 960 703Q956 687 934 687H169V717H822ZM367 685Q407 678 430.5 664.5Q454 651 463.0 636.5Q472 622 471.0 609.0Q470 596 461.0 587.0Q452 578 439.0 577.0Q426 576 411 586Q406 610 390.0 636.0Q374 662 357 677ZM717 -56Q717 -60 710.5 -65.0Q704 -70 692.5 -74.5Q681 -79 667 -79H657V606V638L722 606H881V577H717ZM524 287 561 323 625 261Q619 256 610.0 254.5Q601 253 584 252Q565 244 538.5 232.0Q512 220 483.5 208.5Q455 197 431 188H411Q432 203 455.5 221.0Q479 239 500.5 257.0Q522 275 536 287ZM486 203Q484 193 476.0 187.0Q468 181 452 179V4Q452 -21 446.5 -38.5Q441 -56 422.5 -66.0Q404 -76 365 -80Q364 -68 361.5 -57.5Q359 -47 351 -40Q342 -35 327.5 -29.5Q313 -24 289 -22V-6Q289 -6 300.0 -7.0Q311 -8 326.0 -9.0Q341 -10 354.5 -11.0Q368 -12 374 -12Q384 -12 387.5 -7.5Q391 -3 391 6V214ZM556 287V258H257L248 287ZM342 330Q342 327 334.5 323.0Q327 319 315.5 316.0Q304 313 292 313H284V489V518L346 489H541V460H342ZM202 125Q240 128 305.0 136.0Q370 144 453.0 155.5Q536 167 625 179L627 162Q563 145 472.5 120.5Q382 96 261 68Q253 50 238 46ZM508 489 541 524 614 469Q610 464 599.5 459.0Q589 454 576 452V338Q576 336 567.0 332.0Q558 328 546.5 325.0Q535 322 526 322H517V489ZM833 606 875 646 948 571Q943 566 932.5 564.0Q922 562 905 561Q892 535 873.5 497.0Q855 459 835.5 422.0Q816 385 798 359Q846 326 875.0 291.5Q904 257 917.5 221.5Q931 186 931 150Q931 85 904.0 56.0Q877 27 810 23Q810 37 807.0 50.0Q804 63 798 69Q792 74 779.5 77.5Q767 81 751 84V99Q766 99 789.0 99.0Q812 99 823 99Q839 99 846 105Q856 112 861.0 124.5Q866 137 866 163Q866 213 844.0 260.5Q822 308 774 356Q785 387 798.5 433.0Q812 479 824.5 526.5Q837 574 845 606ZM541 383V354H315V383ZM571 619Q571 619 583.0 609.0Q595 599 612.0 585.0Q629 571 643 557Q639 541 617 541H240L232 571H533Z"/><path transform="translate(122 84) scale(0.029 -0.029)" d="M365 814Q362 805 352.0 798.0Q342 791 319 795L329 812Q325 778 318.5 728.0Q312 678 303.5 622.5Q295 567 286.0 514.5Q277 462 269 423H277L245 389L171 443Q182 450 198.0 457.5Q214 465 227 469L204 432Q210 459 217.5 499.5Q225 540 232.5 586.5Q240 633 247.0 680.0Q254 727 259.0 768.5Q264 810 266 840ZM837 717Q837 717 846.5 710.0Q856 703 870.5 691.5Q885 680 901.0 666.5Q917 653 931 641Q927 625 904 625H267V655H786ZM838 453V423H236V453ZM605 306Q605 306 614.0 298.5Q623 291 638.0 280.0Q653 269 668.5 256.0Q684 243 697 230Q693 214 671 214H53L45 244H556ZM776 453 816 494 894 430Q888 424 878.0 420.0Q868 416 852 415Q846 335 836.0 261.0Q826 187 812.5 126.0Q799 65 781.5 22.5Q764 -20 744 -38Q721 -59 689.5 -69.0Q658 -79 619 -79Q619 -63 614.0 -50.5Q609 -38 596 -30Q587 -24 567.0 -18.0Q547 -12 522.0 -6.5Q497 -1 472 2L473 20Q501 17 538.5 13.5Q576 10 608.0 7.5Q640 5 653 5Q670 5 679.0 8.0Q688 11 698 19Q714 31 728.0 71.0Q742 111 753.0 170.0Q764 229 773.0 301.5Q782 374 787 453Z"/><path transform="translate(151 84) scale(0.029 -0.029)" d="M130 430Q156 439 202.5 457.5Q249 476 308.0 500.5Q367 525 429 552L435 537Q405 521 361.0 494.5Q317 468 264.0 436.5Q211 405 154 374ZM186 721 201 712V431L150 413L175 435Q183 404 170.5 385.5Q158 367 146 361L111 435Q129 444 134.0 451.0Q139 458 139 470V721ZM230 759Q229 749 222.0 743.5Q215 738 201 736V693H139V752V769ZM828 767 864 806 938 745Q928 734 899 730Q895 642 885.0 578.5Q875 515 860.5 475.0Q846 435 826 418Q808 403 783.0 395.5Q758 388 731 388Q731 401 727.5 413.5Q724 426 715 433Q705 440 683.5 446.0Q662 452 639 456L640 474Q656 473 679.0 470.5Q702 468 722.0 467.0Q742 466 751 466Q774 466 785 475Q803 491 817.0 566.0Q831 641 838 767ZM474 771Q459 758 425 772Q394 764 350.5 755.5Q307 747 261.0 740.0Q215 733 173 728L166 744Q206 756 250.5 772.5Q295 789 335.0 807.0Q375 825 401 839ZM680 764Q677 707 667.5 651.5Q658 596 632.0 544.0Q606 492 555.0 445.5Q504 399 418 361L405 377Q476 419 516.0 465.5Q556 512 575.5 561.0Q595 610 601.0 661.5Q607 713 608 764ZM334 665Q383 632 412.5 599.5Q442 567 455.5 538.0Q469 509 470.0 486.0Q471 463 462.5 449.0Q454 435 440.5 433.5Q427 432 411 446Q408 480 393.5 518.5Q379 557 359.5 594.0Q340 631 321 659ZM868 767V738H495L486 767ZM245 -57Q245 -60 237.5 -65.5Q230 -71 217.0 -75.0Q204 -79 190 -79H179V342V375L251 342H790V312H245ZM743 342 780 383 861 320Q857 314 845.5 309.0Q834 304 819 301V-52Q819 -55 809.5 -60.0Q800 -65 787.0 -69.5Q774 -74 763 -74H753V342ZM786 13V-17H213V13ZM786 179V150H213V179ZM535 342V-3H471V342Z"/><path transform="translate(180 84) scale(0.029 -0.029)" d="M157 643V678L230 643H822V614H223V-49Q223 -53 215.5 -59.0Q208 -65 195.5 -70.0Q183 -75 167 -75H157ZM778 643H766L807 691L900 620Q893 613 879.0 606.0Q865 599 847 595V-45Q846 -48 837.0 -54.5Q828 -61 814.5 -66.0Q801 -71 788 -71H778ZM186 39H819V9H186ZM186 347H819V318H186ZM444 840 556 814Q551 793 519 793Q499 758 469.0 713.5Q439 669 408 631H386Q397 661 407.5 697.5Q418 734 428.0 771.5Q438 809 444 840Z"/></g><svg x="24" y="117" width="530" height="530" viewBox="0 0 1254 1254"><g transform="translate(-3 -4) translate(627 627) scale(1.08) translate(-627 -627)"><path fill="#181719" fill-rule="evenodd" d="M271 754C270 742 286 734 309 731C393 723 448 685 501 634C564 573 639 529 719 509C709 479 679 461 644 459C650 447 663 440 669 426C690 371 733 337 784 334C846 328 903 362 939 419C972 473 986 542 986 611C986 708 958 785 901 839C844 894 772 919 696 924C622 929 567 910 518 883C475 859 439 842 392 831C327 817 288 792 275 769C272 764 271 759 271 754Z M853 480C818 615 672 771 417 799C605 828 832 701 853 480Z"/></g></svg><g aria-label="圆形裁切" fill="#181719"><path transform="translate(579 84) scale(0.026 -0.026)" d="M555 351Q554 342 547.0 335.0Q540 328 525 326Q522 286 513.5 246.5Q505 207 478.5 171.0Q452 135 394.5 104.0Q337 73 235 48L223 63Q310 91 358.5 123.5Q407 156 429.0 193.0Q451 230 457.0 272.0Q463 314 464 360ZM612 673 645 708 719 653Q709 640 680 635V503Q680 500 671.5 495.0Q663 490 652.0 486.0Q641 482 630 482H622V673ZM373 494Q373 492 365.5 487.5Q358 483 346.5 479.5Q335 476 323 476H314V673V702L378 673H651V643H373ZM659 540V510H349V540ZM512 192Q598 180 650.0 162.0Q702 144 728.0 124.5Q754 105 760.5 88.5Q767 72 759.5 61.5Q752 51 737.5 49.5Q723 48 708 60Q681 90 630.5 120.0Q580 150 507 175ZM331 178Q331 175 323.5 170.5Q316 166 304.5 162.5Q293 159 280 159H271V431V461L336 431H684V401H331ZM650 431 683 465 752 411Q748 406 739.0 401.5Q730 397 719 396V203Q719 200 710.0 195.5Q701 191 689.5 187.0Q678 183 668 183H658V431ZM172 -52Q172 -57 165.0 -63.5Q158 -70 146.5 -75.0Q135 -80 120 -80H108V784V819L179 784H840V754H172ZM809 784 847 826 928 762Q923 755 911.5 750.0Q900 745 884 742V-46Q884 -48 875.0 -54.5Q866 -61 853.5 -66.0Q841 -71 829 -71H819V784ZM840 21V-8H137V21Z"/><path transform="translate(605 84) scale(0.026 -0.026)" d="M62 755H473L519 814Q519 814 527.5 807.0Q536 800 549.5 789.0Q563 778 577.5 765.5Q592 753 604 742Q600 726 578 726H70ZM39 458H497L544 518Q544 518 552.5 511.0Q561 504 574.0 493.0Q587 482 601.5 469.5Q616 457 628 445Q624 430 601 430H47ZM395 755H460V-50Q459 -53 444.5 -62.0Q430 -71 406 -71H395ZM174 755H239V456Q239 388 233.0 315.5Q227 243 209.0 172.5Q191 102 153.0 37.0Q115 -28 50 -82L36 -71Q99 7 128.0 94.0Q157 181 165.5 273.0Q174 365 174 455ZM855 821 947 767Q942 760 934.0 758.0Q926 756 909 759Q847 687 762.5 623.0Q678 559 585 515L574 532Q656 586 728.5 660.0Q801 734 855 821ZM860 564 952 512Q948 505 939.5 502.5Q931 500 913 504Q842 418 747.5 352.5Q653 287 543 242L533 259Q631 313 714.0 389.5Q797 466 860 564ZM877 311 974 263Q969 255 960.5 252.5Q952 250 935 253Q852 133 741.5 53.5Q631 -26 492 -76L484 -58Q608 3 706.5 91.5Q805 180 877 311Z"/><path transform="translate(631 84) scale(0.026 -0.026)" d="M250 275V208H189V247ZM551 264Q547 260 536.5 257.0Q526 254 514 259Q493 244 458.0 222.5Q423 201 388 183L379 193Q396 212 415.0 236.5Q434 261 450.0 284.5Q466 308 476 324ZM302 242Q372 222 418.5 198.0Q465 174 491.0 149.5Q517 125 527.0 103.0Q537 81 534.0 66.5Q531 52 518.0 47.0Q505 42 487 50Q471 80 437.5 113.5Q404 147 365.0 178.5Q326 210 292 231ZM168 26Q189 31 226.0 42.0Q263 53 309.0 68.0Q355 83 403 100L408 85Q376 67 317.0 32.5Q258 -2 193 -37ZM235 231 250 223V24L194 3L219 28Q225 6 221.5 -10.0Q218 -26 209.0 -36.0Q200 -46 193 -50L154 27Q176 39 182.5 45.5Q189 52 189 63V231ZM344 370Q314 314 267.0 266.5Q220 219 163.0 182.0Q106 145 45 119L35 133Q84 162 128.5 200.5Q173 239 207.5 282.5Q242 326 261 370ZM246 490Q288 484 312.5 470.5Q337 457 347.0 441.5Q357 426 356.0 411.0Q355 396 346.0 385.5Q337 375 323.0 373.5Q309 372 293 384Q290 410 273.0 438.0Q256 466 236 483ZM487 430Q487 430 500.0 419.5Q513 409 531.5 394.0Q550 379 565 364Q561 348 540 348H57L49 377H445ZM381 829Q380 819 371.5 812.0Q363 805 345 803V518H282V840ZM909 423Q905 414 897.0 410.0Q889 406 870 407Q845 336 806.5 265.5Q768 195 713.0 130.5Q658 66 585.5 12.0Q513 -42 421 -79L412 -65Q520 -9 600.0 74.5Q680 158 732.5 255.5Q785 353 810 454ZM724 797Q778 782 811.5 762.5Q845 743 862.5 722.0Q880 701 883.5 682.5Q887 664 880.5 651.5Q874 639 861.0 636.0Q848 633 830 643Q822 667 802.5 694.5Q783 722 759.0 746.5Q735 771 714 789ZM682 825Q681 816 673.0 808.5Q665 801 647 798Q645 672 652.5 552.0Q660 432 683.0 329.5Q706 227 750.0 148.5Q794 70 866 26Q880 16 885.5 17.5Q891 19 897 33Q906 53 917.5 84.5Q929 116 938 148L951 146L935 -3Q957 -29 960.5 -41.5Q964 -54 958 -61Q948 -76 928.0 -75.0Q908 -74 884.0 -62.5Q860 -51 838 -36Q757 17 706.5 103.0Q656 189 629.0 302.0Q602 415 592.0 550.0Q582 685 582 837ZM465 746Q465 746 478.0 735.5Q491 725 508.5 710.0Q526 695 540 680Q537 664 515 664H105L97 693H424ZM869 595Q869 595 878.0 588.0Q887 581 900.5 570.0Q914 559 929.0 546.0Q944 533 956 521Q953 505 931 505H55L46 534H821Z"/><path transform="translate(657 84) scale(0.026 -0.026)" d="M277 816Q275 806 267.5 799.5Q260 793 244 791V750H178V810V827ZM161 110Q187 122 233.5 148.0Q280 174 338.0 207.5Q396 241 456 277L465 264Q438 242 397.5 207.5Q357 173 307.5 132.5Q258 92 202 50ZM228 777 244 768V120L186 92L209 125Q222 103 222.0 84.0Q222 65 215.5 52.0Q209 39 202 34L139 107Q164 126 171.0 135.0Q178 144 178 158V777ZM366 593Q366 593 382.5 584.0Q399 575 420.5 562.0Q442 549 459 537Q459 530 453.0 524.5Q447 519 439 517L44 443L32 467L334 524ZM847 732 887 777 966 710Q960 704 950.0 700.0Q940 696 922 694Q920 568 916.0 464.0Q912 360 905.5 277.5Q899 195 890.5 133.0Q882 71 870.0 31.0Q858 -9 843 -27Q822 -54 791.0 -66.5Q760 -79 724 -79Q724 -63 721.0 -50.0Q718 -37 707 -28Q696 -20 668.5 -12.5Q641 -5 610 0L612 19Q634 17 661.0 14.0Q688 11 712.0 9.0Q736 7 747 7Q763 7 770.5 10.0Q778 13 788 23Q810 44 824.0 135.5Q838 227 846.0 378.5Q854 530 858 732ZM654 732Q649 605 637.5 496.5Q626 388 602.0 298.5Q578 209 534.5 137.0Q491 65 421.0 11.5Q351 -42 247 -80L235 -62Q326 -24 386.0 32.0Q446 88 483.0 161.5Q520 235 540.5 323.5Q561 412 570.0 514.5Q579 617 583 732ZM895 732V702H390L381 732Z"/></g><circle cx="716" cy="313" r="149" fill="#181719"/><svg x="567" y="164" width="298" height="298" viewBox="0 0 1254 1254"><defs><linearGradient id="body-circle" x1="650" y1="330" x2="650" y2="930" gradientUnits="userSpaceOnUse"><stop stop-color="#faf5ed"/><stop offset=".54" stop-color="#eee9f3"/><stop offset="1" stop-color="#d7cfe5"/></linearGradient><linearGradient id="wing-circle" x1="560" y1="540" x2="595" y2="810" gradientUnits="userSpaceOnUse"><stop stop-color="#f7f1e9"/><stop offset=".56" stop-color="#e8e0f0"/><stop offset="1" stop-color="#beb2d5"/></linearGradient></defs><g transform="translate(-3 -4) translate(627 627) scale(1.08) translate(-627 -627)"><path fill="url(#body-circle)" fill-rule="evenodd" d="M271 754C270 742 286 734 309 731C393 723 448 685 501 634C564 573 639 529 719 509C709 479 679 461 644 459C650 447 663 440 669 426C690 371 733 337 784 334C846 328 903 362 939 419C972 473 986 542 986 611C986 708 958 785 901 839C844 894 772 919 696 924C622 929 567 910 518 883C475 859 439 842 392 831C327 817 288 792 275 769C272 764 271 759 271 754Z M853 480C818 615 672 771 417 799C605 828 832 701 853 480Z"/><path fill="url(#wing-circle)" d="M271 754C270 742 286 734 309 731C393 723 448 685 501 634C564 573 639 529 719 509C776 498 827 505 853 480C818 615 672 771 417 799C344 803 285 783 271 754Z"/></g></svg><g aria-label="平台裁切" fill="#181719"><path transform="translate(1001 84) scale(0.026 -0.026)" d="M196 670Q252 630 285.0 590.0Q318 550 333.5 514.5Q349 479 350.0 451.0Q351 423 342.0 406.5Q333 390 317.5 388.0Q302 386 284 403Q281 445 265.0 491.5Q249 538 227.0 583.5Q205 629 182 664ZM42 324H812L864 387Q864 387 873.5 379.5Q883 372 898.0 361.0Q913 350 928.5 336.5Q944 323 958 310Q955 295 931 295H51ZM95 762H768L820 825Q820 825 829.5 817.5Q839 810 853.5 799.0Q868 788 884.0 774.5Q900 761 914 749Q910 733 888 733H103ZM467 760H533V-56Q533 -59 526.0 -64.5Q519 -70 506.5 -74.5Q494 -79 477 -79H467ZM750 672 850 632Q847 625 838.0 619.5Q829 614 813 615Q776 550 729.5 486.5Q683 423 636 379L622 389Q642 424 665.0 470.0Q688 516 710.0 568.5Q732 621 750 672Z"/><path transform="translate(1027 84) scale(0.026 -0.026)" d="M556 792Q552 783 536.5 778.5Q521 774 497 784L526 791Q497 757 453.0 714.5Q409 672 356.5 628.0Q304 584 248.0 543.5Q192 503 140 472L138 483H174Q170 453 160.0 436.0Q150 419 138 414L101 496Q101 496 112.5 498.0Q124 500 131 505Q174 532 222.0 574.5Q270 617 316.0 664.5Q362 712 400.0 758.0Q438 804 461 839ZM123 493Q171 494 246.0 496.5Q321 499 417.0 504.0Q513 509 620.5 515.0Q728 521 840 528L841 508Q720 490 541.5 469.0Q363 448 145 429ZM767 38V8H239V38ZM721 333 759 375 843 310Q838 304 826.5 298.5Q815 293 799 290V-45Q799 -48 789.0 -53.0Q779 -58 766.0 -62.0Q753 -66 742 -66H732V333ZM271 -52Q271 -56 263.0 -61.5Q255 -67 242.0 -71.0Q229 -75 215 -75H204V333V366L276 333H768V303H271ZM639 691Q723 655 777.0 616.0Q831 577 862.0 540.0Q893 503 904.0 472.0Q915 441 911.5 421.0Q908 401 893.5 394.5Q879 388 859 401Q848 437 823.5 475.5Q799 514 766.0 551.5Q733 589 697.0 622.5Q661 656 628 681Z"/><path transform="translate(1053 84) scale(0.026 -0.026)" d="M250 275V208H189V247ZM551 264Q547 260 536.5 257.0Q526 254 514 259Q493 244 458.0 222.5Q423 201 388 183L379 193Q396 212 415.0 236.5Q434 261 450.0 284.5Q466 308 476 324ZM302 242Q372 222 418.5 198.0Q465 174 491.0 149.5Q517 125 527.0 103.0Q537 81 534.0 66.5Q531 52 518.0 47.0Q505 42 487 50Q471 80 437.5 113.5Q404 147 365.0 178.5Q326 210 292 231ZM168 26Q189 31 226.0 42.0Q263 53 309.0 68.0Q355 83 403 100L408 85Q376 67 317.0 32.5Q258 -2 193 -37ZM235 231 250 223V24L194 3L219 28Q225 6 221.5 -10.0Q218 -26 209.0 -36.0Q200 -46 193 -50L154 27Q176 39 182.5 45.5Q189 52 189 63V231ZM344 370Q314 314 267.0 266.5Q220 219 163.0 182.0Q106 145 45 119L35 133Q84 162 128.5 200.5Q173 239 207.5 282.5Q242 326 261 370ZM246 490Q288 484 312.5 470.5Q337 457 347.0 441.5Q357 426 356.0 411.0Q355 396 346.0 385.5Q337 375 323.0 373.5Q309 372 293 384Q290 410 273.0 438.0Q256 466 236 483ZM487 430Q487 430 500.0 419.5Q513 409 531.5 394.0Q550 379 565 364Q561 348 540 348H57L49 377H445ZM381 829Q380 819 371.5 812.0Q363 805 345 803V518H282V840ZM909 423Q905 414 897.0 410.0Q889 406 870 407Q845 336 806.5 265.5Q768 195 713.0 130.5Q658 66 585.5 12.0Q513 -42 421 -79L412 -65Q520 -9 600.0 74.5Q680 158 732.5 255.5Q785 353 810 454ZM724 797Q778 782 811.5 762.5Q845 743 862.5 722.0Q880 701 883.5 682.5Q887 664 880.5 651.5Q874 639 861.0 636.0Q848 633 830 643Q822 667 802.5 694.5Q783 722 759.0 746.5Q735 771 714 789ZM682 825Q681 816 673.0 808.5Q665 801 647 798Q645 672 652.5 552.0Q660 432 683.0 329.5Q706 227 750.0 148.5Q794 70 866 26Q880 16 885.5 17.5Q891 19 897 33Q906 53 917.5 84.5Q929 116 938 148L951 146L935 -3Q957 -29 960.5 -41.5Q964 -54 958 -61Q948 -76 928.0 -75.0Q908 -74 884.0 -62.5Q860 -51 838 -36Q757 17 706.5 103.0Q656 189 629.0 302.0Q602 415 592.0 550.0Q582 685 582 837ZM465 746Q465 746 478.0 735.5Q491 725 508.5 710.0Q526 695 540 680Q537 664 515 664H105L97 693H424ZM869 595Q869 595 878.0 588.0Q887 581 900.5 570.0Q914 559 929.0 546.0Q944 533 956 521Q953 505 931 505H55L46 534H821Z"/><path transform="translate(1079 84) scale(0.026 -0.026)" d="M277 816Q275 806 267.5 799.5Q260 793 244 791V750H178V810V827ZM161 110Q187 122 233.5 148.0Q280 174 338.0 207.5Q396 241 456 277L465 264Q438 242 397.5 207.5Q357 173 307.5 132.5Q258 92 202 50ZM228 777 244 768V120L186 92L209 125Q222 103 222.0 84.0Q222 65 215.5 52.0Q209 39 202 34L139 107Q164 126 171.0 135.0Q178 144 178 158V777ZM366 593Q366 593 382.5 584.0Q399 575 420.5 562.0Q442 549 459 537Q459 530 453.0 524.5Q447 519 439 517L44 443L32 467L334 524ZM847 732 887 777 966 710Q960 704 950.0 700.0Q940 696 922 694Q920 568 916.0 464.0Q912 360 905.5 277.5Q899 195 890.5 133.0Q882 71 870.0 31.0Q858 -9 843 -27Q822 -54 791.0 -66.5Q760 -79 724 -79Q724 -63 721.0 -50.0Q718 -37 707 -28Q696 -20 668.5 -12.5Q641 -5 610 0L612 19Q634 17 661.0 14.0Q688 11 712.0 9.0Q736 7 747 7Q763 7 770.5 10.0Q778 13 788 23Q810 44 824.0 135.5Q838 227 846.0 378.5Q854 530 858 732ZM654 732Q649 605 637.5 496.5Q626 388 602.0 298.5Q578 209 534.5 137.0Q491 65 421.0 11.5Q351 -42 247 -80L235 -62Q326 -24 386.0 32.0Q446 88 483.0 161.5Q520 235 540.5 323.5Q561 412 570.0 514.5Q579 617 583 732ZM895 732V702H390L381 732Z"/></g><rect x="987" y="164" width="298" height="298" rx="0" fill="#181719"/><g transform="translate(1136 313) scale(.92) translate(-1136 -313)"><svg x="987" y="164" width="298" height="298" viewBox="0 0 1254 1254"><defs><linearGradient id="body-safe" x1="650" y1="330" x2="650" y2="930" gradientUnits="userSpaceOnUse"><stop stop-color="#faf5ed"/><stop offset=".54" stop-color="#eee9f3"/><stop offset="1" stop-color="#d7cfe5"/></linearGradient><linearGradient id="wing-safe" x1="560" y1="540" x2="595" y2="810" gradientUnits="userSpaceOnUse"><stop stop-color="#f7f1e9"/><stop offset=".56" stop-color="#e8e0f0"/><stop offset="1" stop-color="#beb2d5"/></linearGradient></defs><g transform="translate(-3 -4) translate(627 627) scale(1.08) translate(-627 -627)"><path fill="url(#body-safe)" fill-rule="evenodd" d="M271 754C270 742 286 734 309 731C393 723 448 685 501 634C564 573 639 529 719 509C709 479 679 461 644 459C650 447 663 440 669 426C690 371 733 337 784 334C846 328 903 362 939 419C972 473 986 542 986 611C986 708 958 785 901 839C844 894 772 919 696 924C622 929 567 910 518 883C475 859 439 842 392 831C327 817 288 792 275 769C272 764 271 759 271 754Z M853 480C818 615 672 771 417 799C605 828 832 701 853 480Z"/><path fill="url(#wing-safe)" d="M271 754C270 742 286 734 309 731C393 723 448 685 501 634C564 573 639 529 719 509C776 498 827 505 853 480C818 615 672 771 417 799C344 803 285 783 271 754Z"/></g></svg></g><circle cx="1136" cy="313" r="119.2" fill="none" stroke="#9d8fe0" stroke-width="1.3" stroke-dasharray="4 5"/><g aria-label="实际尺寸" fill="#181719"><path transform="translate(64 625) scale(0.026 -0.026)" d="M835 680 879 724 959 648Q953 643 944.5 641.5Q936 640 920 639Q902 612 870.0 579.5Q838 547 810 525L798 533Q806 553 815.5 580.5Q825 608 833.5 634.5Q842 661 846 680ZM169 733Q186 677 182.5 635.0Q179 593 163.0 565.5Q147 538 126 524Q113 516 97.5 513.0Q82 510 69.0 515.0Q56 520 50 533Q44 550 53.0 565.5Q62 581 78 590Q98 601 116.0 622.0Q134 643 144.5 671.5Q155 700 152 732ZM867 680V650H157V680ZM437 839Q487 829 516.5 811.0Q546 793 558.5 772.5Q571 752 571.0 734.0Q571 716 561.5 704.0Q552 692 537.0 690.0Q522 688 504 701Q499 735 476.0 772.0Q453 809 427 832ZM183 452Q244 440 282.5 421.0Q321 402 341.5 381.5Q362 361 367.0 341.5Q372 322 366.0 308.5Q360 295 345.5 290.5Q331 286 312 296Q301 321 277.5 348.5Q254 376 226.5 401.0Q199 426 174 443ZM263 600Q320 588 355.5 571.0Q391 554 410.0 534.5Q429 515 433.0 497.5Q437 480 430.5 467.5Q424 455 411.0 451.5Q398 448 379 457Q368 478 346.0 503.0Q324 528 299.5 551.0Q275 574 253 591ZM500 179Q598 159 667.5 134.0Q737 109 782.0 82.5Q827 56 852.5 30.5Q878 5 886.0 -16.0Q894 -37 890.0 -51.5Q886 -66 873.0 -70.0Q860 -74 842 -65Q817 -32 767.5 8.5Q718 49 649.5 90.0Q581 131 495 164ZM613 604Q612 593 604.0 586.0Q596 579 579 577Q577 494 574.0 420.5Q571 347 557.5 284.0Q544 221 512.0 166.5Q480 112 422.5 67.0Q365 22 273.5 -14.5Q182 -51 48 -80L40 -61Q162 -30 244.5 9.0Q327 48 378.5 94.0Q430 140 457.0 194.5Q484 249 495.0 313.5Q506 378 507.5 453.0Q509 528 509 614ZM853 318Q853 318 862.0 310.5Q871 303 885.5 291.0Q900 279 916.0 265.5Q932 252 945 239Q942 223 918 223H76L67 253H803Z"/><path transform="translate(90 625) scale(0.026 -0.026)" d="M681 18Q681 -7 674.0 -27.5Q667 -48 645.5 -61.5Q624 -75 579 -80Q578 -64 573.0 -52.0Q568 -40 559 -32Q548 -23 528.5 -17.0Q509 -11 476 -7V9Q476 9 491.0 8.0Q506 7 527.5 5.5Q549 4 567.5 3.0Q586 2 593 2Q607 2 611.0 6.0Q615 10 615 20V506H681ZM560 351Q556 343 548.5 339.0Q541 335 522 336Q504 285 477.0 225.0Q450 165 412.5 106.5Q375 48 327 1L315 13Q352 65 380.0 131.0Q408 197 427.5 264.0Q447 331 456 387ZM759 376Q822 322 861.5 271.0Q901 220 921.0 175.5Q941 131 944.5 96.5Q948 62 940.0 42.0Q932 22 916.5 18.5Q901 15 882 32Q880 71 866.5 116.0Q853 161 832.5 206.0Q812 251 789.0 293.0Q766 335 744 369ZM875 570Q875 570 884.0 563.0Q893 556 907.0 544.0Q921 532 937.0 519.0Q953 506 965 494Q961 478 938 478H358L350 507H826ZM825 801Q825 801 833.5 794.0Q842 787 855.5 776.5Q869 766 883.5 753.0Q898 740 911 728Q907 712 884 712H438L430 742H778ZM338 779V749H113V779ZM82 811 156 779H144V-54Q144 -57 138.0 -62.5Q132 -68 120.0 -72.5Q108 -77 93 -77H82V779ZM284 779 327 820 405 743Q395 733 361 733Q346 702 324.5 658.5Q303 615 279.5 571.5Q256 528 236 499Q284 460 312.5 420.5Q341 381 353.5 341.0Q366 301 366 262Q367 191 339.5 157.5Q312 124 243 121Q243 137 240.0 151.0Q237 165 231 171Q225 177 213.0 181.5Q201 186 184 188V203Q200 203 220.5 203.0Q241 203 252 203Q268 203 276 209Q288 216 293.5 232.5Q299 249 299 277Q299 331 279.0 385.5Q259 440 211 496Q221 522 232.5 558.5Q244 595 256.0 635.0Q268 675 278.0 712.5Q288 750 295 779Z"/><path transform="translate(116 625) scale(0.026 -0.026)" d="M736 760 773 801 855 738Q850 732 838.5 727.0Q827 722 812 719V400Q812 397 802.5 392.5Q793 388 780.5 383.5Q768 379 756 379H746V760ZM495 466Q507 402 536.0 336.5Q565 271 617.5 209.0Q670 147 752.0 91.5Q834 36 952 -8L950 -20Q923 -23 905.5 -34.0Q888 -45 882 -73Q771 -22 698.0 42.0Q625 106 580.0 177.0Q535 248 511.5 320.5Q488 393 477 462ZM782 760V731H234V760ZM774 468V438H234V468ZM204 770V794L282 760H269V525Q269 468 265.5 406.0Q262 344 250.0 280.0Q238 216 214.0 153.5Q190 91 149.5 33.0Q109 -25 50 -75L36 -64Q90 1 123.5 72.0Q157 143 174.5 218.5Q192 294 198.0 371.0Q204 448 204 525V760Z"/><path transform="translate(142 625) scale(0.026 -0.026)" d="M206 476Q275 444 317.5 408.5Q360 373 381.5 339.5Q403 306 407.5 277.5Q412 249 403.5 230.5Q395 212 378.0 208.5Q361 205 341 221Q334 263 311.0 308.0Q288 353 257.0 395.0Q226 437 194 468ZM43 602H808L862 671Q862 671 871.5 663.5Q881 656 896.5 643.0Q912 630 929.0 616.0Q946 602 960 589Q956 573 933 573H52ZM627 838 731 827Q729 817 720.5 809.5Q712 802 694 800V23Q694 3 690.5 -14.0Q687 -31 674.0 -44.0Q661 -57 636.5 -66.0Q612 -75 570 -79Q566 -63 559.5 -51.0Q553 -39 540 -30Q524 -21 497.0 -14.5Q470 -8 425 -3V14Q425 14 439.5 13.0Q454 12 477.0 10.5Q500 9 524.5 7.0Q549 5 568.5 4.0Q588 3 596 3Q614 3 620.5 9.0Q627 15 627 29Z"/></g><rect x="64" y="686" width="16" height="16" rx="3.568" fill="#181719"/><svg x="64" y="686" width="16" height="16" viewBox="0 0 1254 1254"><g transform="translate(-3 -4) translate(627 627) scale(1.08) translate(-627 -627)"><path fill="#ece9f2" fill-rule="evenodd" d="M271 754C270 742 286 734 309 731C393 723 448 685 501 634C564 573 639 529 719 509C709 479 679 461 644 459C650 447 663 440 669 426C690 371 733 337 784 334C846 328 903 362 939 419C972 473 986 542 986 611C986 708 958 785 901 839C844 894 772 919 696 924C622 929 567 910 518 883C475 859 439 842 392 831C327 817 288 792 275 769C272 764 271 759 271 754Z M858 468C810 610 659 755 410 798C608 847 849 711 858 468Z"/></g></svg><rect x="184" y="686" width="24" height="24" rx="5.352" fill="#181719"/><svg x="184" y="686" width="24" height="24" viewBox="0 0 1254 1254"><g transform="translate(-3 -4) translate(627 627) scale(1.08) translate(-627 -627)"><path fill="#ece9f2" fill-rule="evenodd" d="M271 754C270 742 286 734 309 731C393 723 448 685 501 634C564 573 639 529 719 509C709 479 679 461 644 459C650 447 663 440 669 426C690 371 733 337 784 334C846 328 903 362 939 419C972 473 986 542 986 611C986 708 958 785 901 839C844 894 772 919 696 924C622 929 567 910 518 883C475 859 439 842 392 831C327 817 288 792 275 769C272 764 271 759 271 754Z M858 468C810 610 659 755 410 798C608 847 849 711 858 468Z"/></g></svg><rect x="304" y="686" width="32" height="32" rx="7.136" fill="#181719"/><svg x="304" y="686" width="32" height="32" viewBox="0 0 1254 1254"><defs><linearGradient id="body-qa32" x1="650" y1="330" x2="650" y2="930" gradientUnits="userSpaceOnUse"><stop stop-color="#faf5ed"/><stop offset=".54" stop-color="#eee9f3"/><stop offset="1" stop-color="#d7cfe5"/></linearGradient><linearGradient id="wing-qa32" x1="560" y1="540" x2="595" y2="810" gradientUnits="userSpaceOnUse"><stop stop-color="#f7f1e9"/><stop offset=".56" stop-color="#e8e0f0"/><stop offset="1" stop-color="#beb2d5"/></linearGradient></defs><g transform="translate(-3 -4) translate(627 627) scale(1.08) translate(-627 -627)"><path fill="url(#body-qa32)" fill-rule="evenodd" d="M271 754C270 742 286 734 309 731C393 723 448 685 501 634C564 573 639 529 719 509C709 479 679 461 644 459C650 447 663 440 669 426C690 371 733 337 784 334C846 328 903 362 939 419C972 473 986 542 986 611C986 708 958 785 901 839C844 894 772 919 696 924C622 929 567 910 518 883C475 859 439 842 392 831C327 817 288 792 275 769C272 764 271 759 271 754Z M853 480C818 615 672 771 417 799C605 828 832 701 853 480Z"/><path fill="url(#wing-qa32)" d="M271 754C270 742 286 734 309 731C393 723 448 685 501 634C564 573 639 529 719 509C776 498 827 505 853 480C818 615 672 771 417 799C344 803 285 783 271 754Z"/></g></svg><rect x="424" y="686" width="48" height="48" rx="10.704" fill="#181719"/><svg x="424" y="686" width="48" height="48" viewBox="0 0 1254 1254"><defs><linearGradient id="body-qa48" x1="650" y1="330" x2="650" y2="930" gradientUnits="userSpaceOnUse"><stop stop-color="#faf5ed"/><stop offset=".54" stop-color="#eee9f3"/><stop offset="1" stop-color="#d7cfe5"/></linearGradient><linearGradient id="wing-qa48" x1="560" y1="540" x2="595" y2="810" gradientUnits="userSpaceOnUse"><stop stop-color="#f7f1e9"/><stop offset=".56" stop-color="#e8e0f0"/><stop offset="1" stop-color="#beb2d5"/></linearGradient></defs><g transform="translate(-3 -4) translate(627 627) scale(1.08) translate(-627 -627)"><path fill="url(#body-qa48)" fill-rule="evenodd" d="M271 754C270 742 286 734 309 731C393 723 448 685 501 634C564 573 639 529 719 509C709 479 679 461 644 459C650 447 663 440 669 426C690 371 733 337 784 334C846 328 903 362 939 419C972 473 986 542 986 611C986 708 958 785 901 839C844 894 772 919 696 924C622 929 567 910 518 883C475 859 439 842 392 831C327 817 288 792 275 769C272 764 271 759 271 754Z M853 480C818 615 672 771 417 799C605 828 832 701 853 480Z"/><path fill="url(#wing-qa48)" d="M271 754C270 742 286 734 309 731C393 723 448 685 501 634C564 573 639 529 719 509C776 498 827 505 853 480C818 615 672 771 417 799C344 803 285 783 271 754Z"/></g></svg><rect x="544" y="686" width="64" height="64" rx="14.272" fill="#181719"/><svg x="544" y="686" width="64" height="64" viewBox="0 0 1254 1254"><defs><linearGradient id="body-qa64" x1="650" y1="330" x2="650" y2="930" gradientUnits="userSpaceOnUse"><stop stop-color="#faf5ed"/><stop offset=".54" stop-color="#eee9f3"/><stop offset="1" stop-color="#d7cfe5"/></linearGradient><linearGradient id="wing-qa64" x1="560" y1="540" x2="595" y2="810" gradientUnits="userSpaceOnUse"><stop stop-color="#f7f1e9"/><stop offset=".56" stop-color="#e8e0f0"/><stop offset="1" stop-color="#beb2d5"/></linearGradient></defs><g transform="translate(-3 -4) translate(627 627) scale(1.08) translate(-627 -627)"><path fill="url(#body-qa64)" fill-rule="evenodd" d="M271 754C270 742 286 734 309 731C393 723 448 685 501 634C564 573 639 529 719 509C709 479 679 461 644 459C650 447 663 440 669 426C690 371 733 337 784 334C846 328 903 362 939 419C972 473 986 542 986 611C986 708 958 785 901 839C844 894 772 919 696 924C622 929 567 910 518 883C475 859 439 842 392 831C327 817 288 792 275 769C272 764 271 759 271 754Z M853 480C818 615 672 771 417 799C605 828 832 701 853 480Z"/><path fill="url(#wing-qa64)" d="M271 754C270 742 286 734 309 731C393 723 448 685 501 634C564 573 639 529 719 509C776 498 827 505 853 480C818 615 672 771 417 799C344 803 285 783 271 754Z"/></g></svg><rect x="664" y="686" width="96" height="96" rx="21.408" fill="#181719"/><svg x="664" y="686" width="96" height="96" viewBox="0 0 1254 1254"><defs><linearGradient id="body-qa96" x1="650" y1="330" x2="650" y2="930" gradientUnits="userSpaceOnUse"><stop stop-color="#faf5ed"/><stop offset=".54" stop-color="#eee9f3"/><stop offset="1" stop-color="#d7cfe5"/></linearGradient><linearGradient id="wing-qa96" x1="560" y1="540" x2="595" y2="810" gradientUnits="userSpaceOnUse"><stop stop-color="#f7f1e9"/><stop offset=".56" stop-color="#e8e0f0"/><stop offset="1" stop-color="#beb2d5"/></linearGradient></defs><g transform="translate(-3 -4) translate(627 627) scale(1.08) translate(-627 -627)"><path fill="url(#body-qa96)" fill-rule="evenodd" d="M271 754C270 742 286 734 309 731C393 723 448 685 501 634C564 573 639 529 719 509C709 479 679 461 644 459C650 447 663 440 669 426C690 371 733 337 784 334C846 328 903 362 939 419C972 473 986 542 986 611C986 708 958 785 901 839C844 894 772 919 696 924C622 929 567 910 518 883C475 859 439 842 392 831C327 817 288 792 275 769C272 764 271 759 271 754Z M853 480C818 615 672 771 417 799C605 828 832 701 853 480Z"/><path fill="url(#wing-qa96)" d="M271 754C270 742 286 734 309 731C393 723 448 685 501 634C564 573 639 529 719 509C776 498 827 505 853 480C818 615 672 771 417 799C344 803 285 783 271 754Z"/></g></svg><rect x="784" y="686" width="128" height="128" rx="28.544" fill="#181719"/><svg x="784" y="686" width="128" height="128" viewBox="0 0 1254 1254"><defs><linearGradient id="body-qa128" x1="650" y1="330" x2="650" y2="930" gradientUnits="userSpaceOnUse"><stop stop-color="#faf5ed"/><stop offset=".54" stop-color="#eee9f3"/><stop offset="1" stop-color="#d7cfe5"/></linearGradient><linearGradient id="wing-qa128" x1="560" y1="540" x2="595" y2="810" gradientUnits="userSpaceOnUse"><stop stop-color="#f7f1e9"/><stop offset=".56" stop-color="#e8e0f0"/><stop offset="1" stop-color="#beb2d5"/></linearGradient></defs><g transform="translate(-3 -4) translate(627 627) scale(1.08) translate(-627 -627)"><path fill="url(#body-qa128)" fill-rule="evenodd" d="M271 754C270 742 286 734 309 731C393 723 448 685 501 634C564 573 639 529 719 509C709 479 679 461 644 459C650 447 663 440 669 426C690 371 733 337 784 334C846 328 903 362 939 419C972 473 986 542 986 611C986 708 958 785 901 839C844 894 772 919 696 924C622 929 567 910 518 883C475 859 439 842 392 831C327 817 288 792 275 769C272 764 271 759 271 754Z M853 480C818 615 672 771 417 799C605 828 832 701 853 480Z"/><path fill="url(#wing-qa128)" d="M271 754C270 742 286 734 309 731C393 723 448 685 501 634C564 573 639 529 719 509C776 498 827 505 853 480C818 615 672 771 417 799C344 803 285 783 271 754Z"/></g></svg><rect x="1033" y="656" width="128" height="128" rx="28.544" fill="#ece9f2"/><svg x="1033" y="656" width="128" height="128" viewBox="0 0 1254 1254"><g transform="translate(-3 -4) translate(627 627) scale(1.08) translate(-627 -627)"><path fill="#181719" fill-rule="evenodd" d="M271 754C270 742 286 734 309 731C393 723 448 685 501 634C564 573 639 529 719 509C709 479 679 461 644 459C650 447 663 440 669 426C690 371 733 337 784 334C846 328 903 362 939 419C972 473 986 542 986 611C986 708 958 785 901 839C844 894 772 919 696 924C622 929 567 910 518 883C475 859 439 842 392 831C327 817 288 792 275 769C272 764 271 759 271 754Z M853 480C818 615 672 771 417 799C605 828 832 701 853 480Z"/></g></svg><g aria-label="单色" fill="#181719"><path transform="translate(1234 627) scale(0.02 -0.02)" d="M797 466V437H202V466ZM797 302V273H202V302ZM744 625 781 665 862 603Q857 597 846.0 592.0Q835 587 820 584V255Q820 252 810.5 246.5Q801 241 788.5 236.5Q776 232 764 232H754V625ZM240 245Q240 242 232.0 236.5Q224 231 211.5 227.0Q199 223 186 223H175V625V658L246 625H794V595H240ZM776 791Q772 783 762.0 778.5Q752 774 736 777Q698 730 652.5 686.0Q607 642 564 612L550 623Q580 661 615.5 719.5Q651 778 679 838ZM532 -59Q532 -63 517.0 -71.5Q502 -80 476 -80H466V619H532ZM868 216Q868 216 877.5 208.5Q887 201 902.0 189.5Q917 178 934.0 164.0Q951 150 965 138Q961 122 938 122H44L35 151H816ZM255 827Q312 808 346.5 783.5Q381 759 398.5 734.0Q416 709 418.5 687.5Q421 666 413.0 651.5Q405 637 390.0 634.0Q375 631 356 644Q351 673 332.5 705.5Q314 738 290.5 768.0Q267 798 244 819Z"/><path transform="translate(1254 627) scale(0.02 -0.02)" d="M581 726H569L612 769L689 698Q679 691 649 689Q630 667 604.0 639.0Q578 611 550.0 584.0Q522 557 494 538H476Q496 562 516.0 597.0Q536 632 553.5 667.0Q571 702 581 726ZM307 726H622V697H289ZM463 546H527V285H463ZM170 107H235V56Q235 26 261.5 17.0Q288 8 337 8H737Q789 8 813.5 13.5Q838 19 849 39Q856 51 864.5 75.5Q873 100 881.0 129.5Q889 159 894 184H907L908 29Q934 23 944.0 18.0Q954 13 954 2Q954 -14 936.5 -26.5Q919 -39 873.5 -45.5Q828 -52 743 -52H342Q285 -52 246.5 -42.5Q208 -33 189.0 -9.0Q170 15 170 58ZM762 546H752L790 587L872 524Q867 518 855.0 512.0Q843 506 828 503V228Q828 225 818.5 220.0Q809 215 796.5 210.5Q784 206 772 206H762ZM200 546H804V517H200ZM200 302H804V273H200ZM321 844 425 817Q422 809 414.0 805.5Q406 802 387 803Q351 734 297.5 661.0Q244 588 178.0 523.0Q112 458 41 413L29 426Q74 462 117.5 511.0Q161 560 199.0 616.5Q237 673 268.0 731.0Q299 789 321 844ZM235 546V92Q235 92 220.5 92.0Q206 92 181 92H170V553L183 573L247 546Z"/></g><svg x="1190" y="662" width="156" height="156" viewBox="0 0 1254 1254"><g transform="translate(-3 -4) translate(627 627) scale(1.08) translate(-627 -627)"><path fill="#000000" fill-rule="evenodd" d="M271 754C270 742 286 734 309 731C393 723 448 685 501 634C564 573 639 529 719 509C709 479 679 461 644 459C650 447 663 440 669 426C690 371 733 337 784 334C846 328 903 362 939 419C972 473 986 542 986 611C986 708 958 785 901 839C844 894 772 919 696 924C622 929 567 910 518 883C475 859 439 842 392 831C327 817 288 792 275 769C272 764 271 759 271 754Z M853 480C818 615 672 771 417 799C605 828 832 701 853 480Z"/></g></svg><path d="M64 876H1376" stroke="#d8d3d1"/><g aria-label="矢量轮廓" fill="#181719"><path transform="translate(64 936) scale(0.02 -0.02)" d="M46 395H814L864 458Q864 458 873.5 450.5Q883 443 898.0 431.5Q913 420 929.0 407.0Q945 394 958 381Q957 373 949.5 369.5Q942 366 931 366H55ZM455 669H528Q526 586 521.0 509.0Q516 432 502.5 363.0Q489 294 460.0 231.5Q431 169 379.5 114.0Q328 59 248.5 10.5Q169 -38 54 -79L42 -60Q166 -8 243.5 52.5Q321 113 364.5 182.0Q408 251 427.0 328.5Q446 406 450.0 491.0Q454 576 455 669ZM528 395Q541 340 569.5 284.5Q598 229 648.0 175.5Q698 122 776.0 74.0Q854 26 966 -13L964 -25Q938 -28 921.0 -39.0Q904 -50 898 -78Q793 -33 723.5 23.0Q654 79 611.0 141.5Q568 204 545.0 268.0Q522 332 510 390ZM264 838 371 808Q368 799 359.0 793.0Q350 787 333 787Q296 672 237.5 582.5Q179 493 104 436L91 447Q129 493 163.0 554.0Q197 615 223.0 687.0Q249 759 264 838ZM232 669H729L780 731Q780 731 789.0 723.5Q798 716 812.5 704.5Q827 693 843.0 680.0Q859 667 873 655Q869 639 846 639H232Z"/><path transform="translate(84 936) scale(0.02 -0.02)" d="M250 686H752V656H250ZM250 585H752V556H250ZM714 783H704L741 824L822 761Q817 756 805.5 750.5Q794 745 779 742V539Q779 536 769.5 531.0Q760 526 747.5 522.0Q735 518 724 518H714ZM215 783V815L286 783H762V754H280V533Q280 530 271.5 525.0Q263 520 250.5 516.0Q238 512 225 512H215ZM239 294H765V264H239ZM239 188H765V159H239ZM728 397H718L754 438L837 374Q833 368 820.5 362.5Q808 357 794 354V151Q793 148 783.5 143.0Q774 138 761.0 134.0Q748 130 738 130H728ZM206 397V429L277 397H773V367H271V133Q271 131 263.0 125.5Q255 120 242.0 116.0Q229 112 216 112H206ZM52 491H817L863 547Q863 547 871.5 540.5Q880 534 893.0 523.5Q906 513 920.5 501.0Q935 489 947 478Q944 462 921 462H61ZM51 -27H816L864 34Q864 34 873.0 27.0Q882 20 895.5 9.0Q909 -2 924.5 -15.0Q940 -28 953 -40Q950 -56 926 -56H60ZM126 84H762L806 138Q806 138 814.0 131.5Q822 125 834.5 115.0Q847 105 861.0 93.5Q875 82 887 71Q883 55 861 55H135ZM465 397H529V-38H465Z"/><path transform="translate(104 936) scale(0.02 -0.02)" d="M309 -59Q309 -62 294.5 -70.0Q280 -78 256 -78H246V386H309ZM344 557Q342 547 334.5 540.0Q327 533 309 531V376Q309 376 296.0 376.0Q283 376 266 376H250V568ZM46 152Q82 158 147.5 172.0Q213 186 296.0 204.5Q379 223 467 244L470 228Q408 202 320.5 167.5Q233 133 113 90Q108 71 91 66ZM368 446Q368 446 380.5 435.5Q393 425 410.5 410.5Q428 396 442 383Q438 367 417 367H104L96 396H328ZM386 705Q386 705 399.5 694.5Q413 684 432.0 669.0Q451 654 466 639Q463 623 441 623H46L38 652H343ZM306 804Q302 796 291.5 790.0Q281 784 259 788L271 804Q263 774 251.0 731.0Q239 688 223.5 639.5Q208 591 192.0 541.5Q176 492 160.0 446.5Q144 401 131 367H141L108 333L38 391Q49 398 66.0 404.5Q83 411 97 414L70 379Q82 410 98.0 455.0Q114 500 131.0 551.5Q148 603 164.0 655.5Q180 708 192.5 754.5Q205 801 213 835ZM867 375Q861 369 853.0 368.0Q845 367 830 374Q767 322 695.5 280.5Q624 239 562 215L554 230Q590 254 631.5 287.5Q673 321 715.0 361.0Q757 401 792 443ZM613 484Q612 475 604.5 468.0Q597 461 581 459V38Q581 24 589.5 18.0Q598 12 631 12H741Q780 12 807.0 12.5Q834 13 846 14Q862 15 868 27Q874 39 882.0 77.5Q890 116 898 161H911L914 23Q931 17 937.0 11.0Q943 5 943 -5Q943 -20 927.0 -29.0Q911 -38 868.0 -42.0Q825 -46 740 -46H622Q581 -46 558.5 -40.0Q536 -34 528.0 -18.0Q520 -2 520 25V495ZM700 807Q723 745 766.0 685.0Q809 625 862.0 574.5Q915 524 966 489L962 477Q940 472 924.5 459.5Q909 447 903 428Q854 472 811.5 532.0Q769 592 735.5 660.0Q702 728 680 795ZM703 794Q676 733 635.5 663.5Q595 594 542.5 530.0Q490 466 428 419L415 430Q453 469 489.0 520.5Q525 572 555.5 628.0Q586 684 609.5 740.5Q633 797 646 845L741 812Q739 805 730.5 799.5Q722 794 703 794Z"/><path transform="translate(124 936) scale(0.02 -0.02)" d="M463 849Q512 843 542.0 828.5Q572 814 586.5 797.0Q601 780 602.5 764.5Q604 749 596.5 737.5Q589 726 574.5 723.0Q560 720 543 729Q532 758 505.5 789.5Q479 821 453 841ZM133 727V751L210 717H198V462Q198 398 194.5 327.5Q191 257 176.5 184.5Q162 112 131.5 44.0Q101 -24 48 -83L33 -73Q79 6 100.0 95.0Q121 184 127.0 277.0Q133 370 133 461V717ZM871 779Q871 779 879.5 771.5Q888 764 902.0 752.5Q916 741 931.5 728.5Q947 716 960 703Q956 687 934 687H169V717H822ZM367 685Q407 678 430.5 664.5Q454 651 463.0 636.5Q472 622 471.0 609.0Q470 596 461.0 587.0Q452 578 439.0 577.0Q426 576 411 586Q406 610 390.0 636.0Q374 662 357 677ZM717 -56Q717 -60 710.5 -65.0Q704 -70 692.5 -74.5Q681 -79 667 -79H657V606V638L722 606H881V577H717ZM524 287 561 323 625 261Q619 256 610.0 254.5Q601 253 584 252Q565 244 538.5 232.0Q512 220 483.5 208.5Q455 197 431 188H411Q432 203 455.5 221.0Q479 239 500.5 257.0Q522 275 536 287ZM486 203Q484 193 476.0 187.0Q468 181 452 179V4Q452 -21 446.5 -38.5Q441 -56 422.5 -66.0Q404 -76 365 -80Q364 -68 361.5 -57.5Q359 -47 351 -40Q342 -35 327.5 -29.5Q313 -24 289 -22V-6Q289 -6 300.0 -7.0Q311 -8 326.0 -9.0Q341 -10 354.5 -11.0Q368 -12 374 -12Q384 -12 387.5 -7.5Q391 -3 391 6V214ZM556 287V258H257L248 287ZM342 330Q342 327 334.5 323.0Q327 319 315.5 316.0Q304 313 292 313H284V489V518L346 489H541V460H342ZM202 125Q240 128 305.0 136.0Q370 144 453.0 155.5Q536 167 625 179L627 162Q563 145 472.5 120.5Q382 96 261 68Q253 50 238 46ZM508 489 541 524 614 469Q610 464 599.5 459.0Q589 454 576 452V338Q576 336 567.0 332.0Q558 328 546.5 325.0Q535 322 526 322H517V489ZM833 606 875 646 948 571Q943 566 932.5 564.0Q922 562 905 561Q892 535 873.5 497.0Q855 459 835.5 422.0Q816 385 798 359Q846 326 875.0 291.5Q904 257 917.5 221.5Q931 186 931 150Q931 85 904.0 56.0Q877 27 810 23Q810 37 807.0 50.0Q804 63 798 69Q792 74 779.5 77.5Q767 81 751 84V99Q766 99 789.0 99.0Q812 99 823 99Q839 99 846 105Q856 112 861.0 124.5Q866 137 866 163Q866 213 844.0 260.5Q822 308 774 356Q785 387 798.5 433.0Q812 479 824.5 526.5Q837 574 845 606ZM541 383V354H315V383ZM571 619Q571 619 583.0 609.0Q595 599 612.0 585.0Q629 571 643 557Q639 541 617 541H240L232 571H533Z"/></g><g aria-label="收拢的翅膀" fill="#181719"><path transform="translate(645 936) scale(0.02 -0.02)" d="M883 671Q883 671 891.5 664.5Q900 658 913.0 647.0Q926 636 941.0 623.5Q956 611 968 599Q965 583 942 583H536V612H835ZM661 813Q659 804 650.5 798.0Q642 792 625 791Q592 647 538.0 522.0Q484 397 410 310L395 319Q430 385 461.0 468.5Q492 552 515.0 646.0Q538 740 552 838ZM867 612Q851 494 819.0 390.5Q787 287 732.0 200.5Q677 114 593.5 44.0Q510 -26 392 -79L382 -65Q518 14 602.5 115.5Q687 217 732.0 342.0Q777 467 791 612ZM530 591Q550 487 583.5 395.0Q617 303 670.0 225.5Q723 148 798.0 87.0Q873 26 976 -15L973 -25Q951 -28 934.0 -40.5Q917 -53 910 -77Q785 -12 705.5 83.5Q626 179 582.0 301.0Q538 423 515 565ZM77 202Q100 208 142.0 219.5Q184 231 236.0 246.0Q288 261 341 278L346 263Q323 250 285.5 229.5Q248 209 202.5 185.0Q157 161 107 137ZM194 721Q193 711 184.0 704.0Q175 697 158 694V657H95V716V733ZM143 676 158 667V194L102 174L127 198Q135 166 122.0 146.5Q109 127 98 122L62 199Q84 210 89.5 217.0Q95 224 95 238V676ZM401 824Q400 814 392.5 807.0Q385 800 367 798V-50Q367 -55 359.5 -61.5Q352 -68 340.0 -72.5Q328 -77 315 -77H303V835Z"/><path transform="translate(665 936) scale(0.02 -0.02)" d="M711 568Q711 558 711.0 549.0Q711 540 711 534V24Q711 11 717.0 5.5Q723 0 746 0H816Q840 0 858.0 0.0Q876 0 884 1Q890 2 894.0 3.5Q898 5 901 10Q906 17 913.5 47.0Q921 77 928 108H940L943 8Q959 3 965.0 -4.0Q971 -11 971 -21Q971 -35 958.0 -44.0Q945 -53 911.5 -57.0Q878 -61 814 -61H733Q699 -61 680.5 -54.5Q662 -48 655.5 -33.0Q649 -18 649 7V568ZM931 413Q927 405 918.5 402.0Q910 399 893 403Q816 272 707.0 168.0Q598 64 462 -8L451 8Q573 91 673.0 202.0Q773 313 843 455ZM688 781Q738 767 768.5 748.0Q799 729 813.5 709.5Q828 690 830.5 672.0Q833 654 825.5 642.5Q818 631 804.5 628.5Q791 626 775 637Q770 661 754.0 686.0Q738 711 718.0 734.0Q698 757 678 773ZM619 824Q616 800 583 796Q581 682 576.0 580.0Q571 478 556.0 386.5Q541 295 509.5 212.5Q478 130 423.0 56.5Q368 -17 283 -83L266 -68Q356 19 406.5 116.5Q457 214 480.0 324.5Q503 435 509.5 562.5Q516 690 517 835ZM880 631Q880 631 888.5 624.5Q897 618 910.0 607.0Q923 596 937.5 584.0Q952 572 965 560Q961 544 939 544H398L390 574H833ZM34 310Q57 317 97.0 330.0Q137 343 188.0 360.5Q239 378 296.5 398.5Q354 419 414 441L420 427Q362 395 279.5 350.5Q197 306 91 253Q89 244 83.0 237.5Q77 231 70 228ZM287 827Q285 817 276.5 810.0Q268 803 250 801V23Q250 -4 243.5 -24.5Q237 -45 214.5 -58.0Q192 -71 145 -76Q143 -60 138.0 -47.0Q133 -34 122 -26Q110 -16 89.5 -9.5Q69 -3 33 1V18Q33 18 49.5 16.5Q66 15 89.0 13.5Q112 12 132.5 10.5Q153 9 161 9Q176 9 181.5 14.0Q187 19 187 31V838ZM331 666Q331 666 344.0 655.0Q357 644 375.0 628.5Q393 613 407 597Q404 581 381 581H47L39 611H289Z"/><path transform="translate(685 936) scale(0.02 -0.02)" d="M152 -24Q152 -28 145.0 -33.5Q138 -39 126.5 -43.0Q115 -47 101 -47H90V661V693L157 661H393V631H152ZM333 813Q327 792 296 792Q284 768 269.0 740.5Q254 713 238.5 686.0Q223 659 210 638H185Q191 663 199.0 698.0Q207 733 215.0 770.0Q223 807 228 837ZM836 661 877 706 956 639Q950 633 940.0 629.0Q930 625 913 623Q910 485 905.5 374.0Q901 263 892.5 181.0Q884 99 871.5 46.5Q859 -6 841 -28Q821 -53 791.5 -64.5Q762 -76 726 -76Q726 -60 722.0 -46.5Q718 -33 706 -25Q695 -16 666.5 -8.0Q638 0 607 5L608 23Q631 21 659.5 18.0Q688 15 713.0 13.0Q738 11 749 11Q765 11 772.5 14.0Q780 17 788 25Q808 45 819.5 127.5Q831 210 838.0 346.0Q845 482 848 661ZM351 661 388 701 467 639Q463 633 451.0 627.5Q439 622 424 619V6Q424 2 415.0 -3.5Q406 -9 394.0 -13.5Q382 -18 370 -18H361V661ZM545 455Q605 429 642.0 398.5Q679 368 697.0 339.0Q715 310 717.5 286.0Q720 262 712.0 246.5Q704 231 688.5 228.5Q673 226 655 240Q649 275 630.0 312.5Q611 350 585.0 385.5Q559 421 534 448ZM892 661V632H572L585 661ZM706 807Q703 799 694.0 792.5Q685 786 668 787Q631 678 577.0 582.0Q523 486 457 421L443 431Q476 481 506.0 546.0Q536 611 561.5 685.5Q587 760 603 837ZM403 381V352H123V381ZM403 87V58H123V87Z"/><path transform="translate(705 936) scale(0.02 -0.02)" d="M672 297Q689 309 720.5 333.0Q752 357 792.0 389.5Q832 422 873 455L884 444Q858 413 819.5 367.0Q781 321 733 265Q734 258 731.0 249.5Q728 241 723 236ZM395 290Q413 301 445.5 323.0Q478 345 520.0 374.5Q562 404 604 436L614 423Q587 394 546.0 350.5Q505 307 454 255Q454 248 451.0 239.5Q448 231 442 226ZM713 660Q762 632 788.0 603.5Q814 575 822.0 550.0Q830 525 825.0 509.0Q820 493 807.0 489.0Q794 485 778 498Q775 522 762.0 551.0Q749 580 732.5 607.0Q716 634 700 654ZM453 650Q497 622 519.5 594.0Q542 566 548.0 542.0Q554 518 547.5 502.5Q541 487 527.5 484.0Q514 481 499 495Q496 531 477.5 573.0Q459 615 440 643ZM842 768 874 807 954 747Q950 741 938.5 736.0Q927 731 912 728V159Q912 134 906.0 115.5Q900 97 880.0 85.0Q860 73 818 68Q817 83 812.0 95.0Q807 107 798 114Q789 122 770.5 127.5Q752 133 722 138V153Q722 153 736.0 152.0Q750 151 769.5 150.0Q789 149 806.5 148.0Q824 147 831 147Q844 147 848.0 151.0Q852 155 852 166V768ZM877 768V739H689L680 768ZM125 458Q150 342 184.0 262.0Q218 182 263.5 132.0Q309 82 369.0 55.5Q429 29 505.0 19.5Q581 10 677 10Q702 10 739.5 10.0Q777 10 818.0 10.0Q859 10 897.5 10.5Q936 11 963 11V-2Q942 -6 930.5 -21.0Q919 -36 917 -56Q896 -56 864.0 -56.0Q832 -56 796.0 -56.0Q760 -56 727.0 -56.0Q694 -56 670 -56Q571 -56 492.0 -44.0Q413 -32 351.5 -1.0Q290 30 244.0 87.0Q198 144 165.0 234.0Q132 324 109 452ZM309 458 348 497 417 435Q407 423 378 422Q364 347 340.0 274.5Q316 202 277.5 136.5Q239 71 182.5 15.5Q126 -40 45 -83L34 -68Q125 -7 182.5 76.0Q240 159 272.5 256.5Q305 354 319 458ZM567 768 598 806 676 748Q671 742 660.5 737.0Q650 732 636 730V159Q636 134 630.5 115.0Q625 96 605.0 84.5Q585 73 542 68Q541 82 536.5 94.0Q532 106 523 114Q513 122 494.5 127.5Q476 133 446 138V153Q446 153 460.0 152.0Q474 151 493.5 150.0Q513 149 530.5 148.0Q548 147 555 147Q568 147 572.5 151.0Q577 155 577 166V768ZM631 768V739H422L413 768ZM359 458V429H64L55 458ZM298 826Q297 815 288.5 808.0Q280 801 261 798V446H200V836ZM359 719Q359 719 372.0 708.5Q385 698 403.0 683.0Q421 668 434 653Q431 637 409 637H52L44 667H319Z"/><path transform="translate(725 936) scale(0.02 -0.02)" d="M605 470Q647 457 671.0 440.0Q695 423 705.0 405.5Q715 388 714.0 373.5Q713 359 704.0 350.0Q695 341 681.5 340.5Q668 340 654 351Q649 379 631.0 410.5Q613 442 594 463ZM586 841Q630 830 656.0 814.0Q682 798 693.0 780.0Q704 762 704.5 746.5Q705 731 696.5 720.5Q688 710 674.5 708.0Q661 706 646 718Q642 747 620.5 780.5Q599 814 575 833ZM458 547Q472 491 462.0 451.0Q452 411 433 392Q425 385 412.5 381.5Q400 378 388.5 381.0Q377 384 371 394Q363 408 370.0 422.0Q377 436 391 446Q403 455 414.0 471.5Q425 488 432.5 508.0Q440 528 440 548ZM611 328Q607 276 597.5 222.0Q588 168 564.5 115.0Q541 62 496.0 13.0Q451 -36 377 -78L363 -62Q423 -17 458.0 32.0Q493 81 510.0 131.5Q527 182 533.0 232.0Q539 282 540 328ZM786 219 822 256 894 197Q885 186 856 183Q850 87 833.5 28.5Q817 -30 789 -51Q772 -64 748.0 -70.5Q724 -77 697 -77Q697 -64 693.5 -52.0Q690 -40 680 -33Q671 -26 648.5 -19.5Q626 -13 601 -10L602 6Q620 5 643.5 3.0Q667 1 688.0 -0.5Q709 -2 718 -2Q740 -2 752 7Q766 20 778.0 75.0Q790 130 796 219ZM519 655Q560 639 583.5 620.5Q607 602 616.5 583.5Q626 565 624.5 549.5Q623 534 614.5 525.0Q606 516 592.5 515.5Q579 515 564 527Q561 557 543.5 591.5Q526 626 508 649ZM864 623Q861 615 852.0 610.0Q843 605 827 606Q809 581 782.5 550.5Q756 520 729 493H710Q724 527 739.5 574.0Q755 621 764 658ZM852 507 893 549 968 476Q962 472 952.5 470.5Q943 469 929 467Q917 457 899.5 442.5Q882 428 864.0 414.0Q846 400 832 391L818 397Q824 411 832.5 431.5Q841 452 850.0 473.0Q859 494 863 507ZM824 219V190H561L576 219ZM865 756Q865 756 874.0 749.0Q883 742 896.5 731.0Q910 720 925.0 707.5Q940 695 952 683Q948 667 926 667H409L401 697H819ZM878 390Q878 390 892.5 379.0Q907 368 926.5 352.0Q946 336 962 320Q958 304 936 304H402L394 334H832ZM888 507V478H440V507ZM278 781 310 820 389 760Q385 754 374.0 749.5Q363 745 349 742V16Q349 -11 343.5 -30.0Q338 -49 318.5 -61.0Q299 -73 258 -78Q257 -63 252.5 -51.0Q248 -39 240 -30Q230 -23 213.5 -17.0Q197 -11 170 -6V10Q170 10 182.5 9.0Q195 8 212.5 6.5Q230 5 246.0 4.0Q262 3 267 3Q280 3 284.0 8.0Q288 13 288 23V781ZM321 326V297H139V326ZM321 559V529H139V559ZM321 781V752H139V781ZM107 791V814L180 781H168V446Q168 383 165.5 314.0Q163 245 153.5 175.5Q144 106 121.5 40.5Q99 -25 57 -79L41 -70Q74 4 88.0 89.5Q102 175 104.5 265.5Q107 356 107 445V781Z"/></g><g aria-label="光学校正" fill="#181719"><path transform="translate(1242 936) scale(0.02 -0.02)" d="M147 778Q210 742 248.5 705.5Q287 669 306.0 635.0Q325 601 328.0 574.0Q331 547 323.0 530.0Q315 513 299.5 510.5Q284 508 265 523Q259 563 238.0 608.0Q217 653 189.0 696.0Q161 739 134 770ZM41 453H814L865 516Q865 516 874.0 508.5Q883 501 898.0 490.0Q913 479 928.5 465.5Q944 452 957 440Q954 424 931 424H49ZM464 838 567 827Q566 817 557.5 809.5Q549 802 530 799V442H464ZM791 784 892 736Q888 728 878.0 723.5Q868 719 852 722Q807 660 753.5 601.5Q700 543 650 502L636 513Q660 545 687.5 589.5Q715 634 742.0 684.5Q769 735 791 784ZM562 443H629Q629 434 629.0 425.5Q629 417 629 411V36Q629 22 636.5 16.5Q644 11 673 11H773Q809 11 833.5 12.0Q858 13 869 14Q879 15 883.0 18.5Q887 22 889 30Q894 40 899.0 65.0Q904 90 910.5 125.0Q917 160 923 197H936L940 23Q956 17 961.0 10.0Q966 3 966 -7Q966 -22 951.5 -31.5Q937 -41 895.5 -45.5Q854 -50 772 -50H662Q622 -50 600.0 -43.5Q578 -37 570.0 -21.5Q562 -6 562 20ZM349 443H425Q418 340 396.5 258.0Q375 176 332.5 113.0Q290 50 218.0 3.0Q146 -44 38 -78L33 -63Q124 -23 184.0 27.0Q244 77 278.5 138.0Q313 199 329.0 274.5Q345 350 349 443Z"/><path transform="translate(1262 936) scale(0.02 -0.02)" d="M214 486H692V457H223ZM46 253H815L865 316Q865 316 874.5 309.0Q884 302 898.5 290.0Q913 278 928.5 265.0Q944 252 957 240Q953 225 931 225H55ZM471 360 573 349Q570 328 538 323V21Q538 -6 530.5 -27.0Q523 -48 498.0 -61.0Q473 -74 420 -79Q416 -63 410.0 -50.5Q404 -38 392 -30Q377 -21 352.5 -14.5Q328 -8 286 -3V13Q286 13 300.0 12.0Q314 11 335.0 9.5Q356 8 378.5 6.5Q401 5 419.0 4.0Q437 3 444 3Q460 3 465.5 8.0Q471 13 471 25ZM158 626H887V596H158ZM143 690 160 691Q180 630 177.0 583.5Q174 537 158.0 506.5Q142 476 121 461Q102 446 80.0 444.5Q58 443 49 460Q41 476 49.0 491.0Q57 506 72 515Q103 535 125.5 583.0Q148 631 143 690ZM849 626H838L884 671L964 594Q959 588 949.5 586.0Q940 584 925 583Q910 566 886.0 545.0Q862 524 836.5 504.5Q811 485 789 471L777 479Q790 498 803.5 525.0Q817 552 829.5 579.0Q842 606 849 626ZM206 823Q257 803 288.0 779.0Q319 755 333.5 731.5Q348 708 349.0 688.0Q350 668 341.5 655.5Q333 643 319.0 640.5Q305 638 288 651Q284 678 269.0 708.5Q254 739 234.0 767.0Q214 795 194 815ZM429 839Q479 817 507.5 790.5Q536 764 548.0 739.5Q560 715 559.0 694.0Q558 673 548.5 660.5Q539 648 523.5 647.0Q508 646 492 660Q491 689 480.0 720.5Q469 752 452.0 781.5Q435 811 417 832ZM743 836 845 800Q841 791 832.0 786.5Q823 782 806 783Q776 742 728.0 693.0Q680 644 631 607H608Q632 638 657.0 678.0Q682 718 704.5 759.5Q727 801 743 836ZM669 486H657L701 527L775 456Q769 451 759.5 449.0Q750 447 733 446Q707 427 669.0 404.5Q631 382 589.5 361.5Q548 341 514 326L502 336Q528 355 560.5 382.0Q593 409 622.5 437.0Q652 465 669 486Z"/><path transform="translate(1282 936) scale(0.02 -0.02)" d="M534 407Q558 324 598.5 256.5Q639 189 696.0 136.5Q753 84 824.5 46.5Q896 9 980 -16L977 -26Q957 -28 941.5 -41.5Q926 -55 918 -77Q811 -36 731.0 28.5Q651 93 597.5 184.5Q544 276 516 398ZM866 405Q862 396 852.5 390.0Q843 384 824 385Q815 344 799.5 298.5Q784 253 753.0 204.5Q722 156 669.5 106.5Q617 57 535.0 10.0Q453 -37 336 -80L325 -61Q457 -2 541.0 61.0Q625 124 671.5 189.0Q718 254 738.5 316.5Q759 379 765 438ZM752 594Q820 565 862.0 532.5Q904 500 926.0 468.5Q948 437 953.5 410.5Q959 384 951.5 367.0Q944 350 929.0 346.0Q914 342 894 356Q887 395 862.0 437.0Q837 479 805.0 518.0Q773 557 741 585ZM631 560Q627 552 617.5 547.5Q608 543 592 544Q553 466 500.0 403.0Q447 340 389 299L375 310Q421 360 464.5 436.5Q508 513 535 598ZM595 842Q644 824 673.0 801.5Q702 779 714.0 756.0Q726 733 726.0 713.5Q726 694 716.5 681.0Q707 668 692.5 667.0Q678 666 661 679Q659 706 647.5 735.0Q636 764 619.0 790.0Q602 816 584 834ZM885 717Q885 717 894.0 710.5Q903 704 915.5 693.5Q928 683 943.0 670.0Q958 657 970 646Q966 630 944 630H402L394 660H840ZM251 537Q299 510 327.5 481.5Q356 453 368.5 427.0Q381 401 381.5 381.0Q382 361 373.0 348.0Q364 335 350.5 334.0Q337 333 321 346Q318 376 305.0 409.5Q292 443 274.0 475.0Q256 507 238 530ZM300 831Q299 820 291.5 813.0Q284 806 265 803V-55Q265 -59 257.0 -65.0Q249 -71 238.0 -75.5Q227 -80 215 -80H201V842ZM256 590Q230 463 176.0 351.0Q122 239 37 149L24 162Q66 224 97.5 296.5Q129 369 151.5 448.0Q174 527 188 606H256ZM340 664Q340 664 353.5 653.0Q367 642 385.5 625.5Q404 609 420 594Q416 578 394 578H51L43 608H297Z"/><path transform="translate(1302 936) scale(0.02 -0.02)" d="M81 747H778L830 812Q830 812 839.5 804.5Q849 797 864.0 785.0Q879 773 895.0 759.5Q911 746 925 734Q921 718 898 718H90ZM474 747H542V-12H474ZM42 0H813L865 65Q865 65 874.5 57.5Q884 50 899.5 38.5Q915 27 931.0 13.0Q947 -1 961 -13Q957 -29 935 -29H50ZM506 400H734L784 463Q784 463 793.5 455.5Q803 448 817.5 436.5Q832 425 848.0 412.0Q864 399 878 386Q874 370 850 370H506ZM196 507 301 497Q299 487 291.0 479.5Q283 472 264 469V-11H196Z"/></g></svg>