<svg xmlns="http://www.w3.org/2000/svg" width="512" height="512" viewBox="0 0 512 512"><svg x="0" y="0" width="512" height="512" viewBox="0 0 1254 1254"><g transform="translate(-3 -4) translate(627 627) scale(1.08) translate(-627 -627)"><path fill="#181719" fill-rule="evenodd" d="M271 754C270 742 286 734 309 731C393 723 448 685 501 634C564 573 639 529 719 509C709 479 679 461 644 459C650 447 663 440 669 426C690 371 733 337 784 334C846 328 903 362 939 419C972 473 986 542 986 611C986 708 958 785 901 839C844 894 772 919 696 924C622 929 567 910 518 883C475 859 439 842 392 831C327 817 288 792 275 769C272 764 271 759 271 754Z M858 468C810 610 659 755 410 798C608 847 849 711 858 468Z"/></g></svg></svg>